<svg width="75" height="36" viewBox="0 0 75 36" fill="none" xmlns="http://www.w3.org/2000/svg">
<g clip-path="url(#clip0_1_1285)">
<path d="M5.50551 27.9335C11.355 23.0543 18.4336 19.8441 25.9678 18.6873C33.9041 17.4686 42.8971 17.526 50.0289 19.248C54.9145 20.4314 55.6086 20.6478 56.8334 21.4028C54.7244 23.9903 47.8138 28.3707 48.2073 33.6825C48.2913 34.8482 49.6443 35.4531 50.5771 34.7511C56.4664 30.3134 68.7181 23.0411 73.9 18.493C74.4438 18.0161 75.0363 17.4332 75.0009 16.7091C74.9699 16.007 74.3643 15.4904 73.8071 15.0621C66.7461 9.67071 59.3315 4.73853 51.6339 0.305311C50.5771 -0.304036 49.1711 0.0227154 48.5964 1.10011C48.0924 2.03621 48.6318 2.76036 49.1401 3.40504C51.5454 6.45619 53.9506 9.50734 56.3559 12.5629C43.9936 7.34813 29.549 7.57333 17.1869 12.6997C10.2497 15.5743 4.48417 20.7538 1.10181 27.4434C-0.710957 31.0376 -0.923183 33.294 5.50551 27.9335Z" fill="#FBC8B8"/>
</g>
<defs>
<clipPath id="clip0_1_1285">
<rect width="75" height="36" fill="white"/>
</clipPath>
</defs>
</svg>
